# Blender v2.91.2 OBJ File: 'untitled2.blend'
# www.blender.org
mtllib untitled2.mtl
o Plane.001
v 5.695438 6.930773 -2.357688
v 4.343399 7.000000 -2.929800
v 5.731884 0.847357 -3.179929
v 4.379844 0.916585 -3.752042
v -2.612582 5.891132 -0.471979
v -2.404671 -0.040517 -0.568385
v -1.405521 5.949501 -1.460097
v -1.197611 0.017851 -1.556502
v -1.383990 4.114952 0.171754
v -0.725028 4.075197 1.245951
v -1.147082 -0.039742 -0.127337
v -0.488120 -0.079497 0.946859
v -2.958637 3.290956 -3.418921
v -3.604202 3.299675 -4.520827
v -3.043709 0.012043 -3.395024
v -3.689273 0.020761 -4.496930
v -1.853464 5.010543 -5.472981
v -1.817425 4.963552 -6.496564
v -1.582160 -0.230872 -5.222804
v -1.546122 -0.277863 -6.246387
v -2.107443 5.713905 -0.332317
v -0.775305 5.650471 -1.230527
v -2.190346 0.042522 -0.054743
v -0.858208 -0.020912 -0.952952
v -3.358171 4.288098 -1.259986
v -4.441109 4.326968 -0.227735
v -3.021714 -0.065371 -0.743076
v -4.104652 -0.026501 0.289175
v -2.058337 4.843831 -3.095505
v -2.360392 4.888227 -4.079431
v -1.753384 0.137923 -3.401456
v -2.055437 0.182318 -4.385381
v -4.162494 4.405339 -2.957665
v -5.380181 4.417806 -3.409551
v -4.322434 0.027245 -2.647466
v -5.540122 0.039712 -3.099353
v -0.057528 6.209333 3.736186
v 0.595500 6.251826 4.904673
v 0.133617 0.182091 3.848548
v 0.786646 0.224584 5.017035
v -2.814875 4.298935 -1.159998
v -4.070468 4.341234 -0.820721
v -3.086881 0.143027 -1.648492
v -4.342472 0.185326 -1.309214
v -1.033422 5.911230 -3.443924
v -1.196057 5.870698 -4.379744
v -0.269502 0.125246 -3.326088
v -0.432137 0.084714 -4.261909
v -4.886071 4.775712 0.856937
v -6.107608 4.721249 1.633535
v -4.673105 -0.213687 0.842009
v -5.894643 -0.268150 1.618607
v 2.886084 5.237290 -1.003702
v 1.728116 5.286957 -1.964551
v 2.807702 0.237160 -1.167700
v 1.649734 0.286827 -2.128549
v -2.450696 5.330681 -1.877252
v -1.139694 5.366037 -1.217713
v -2.378323 -0.034672 -1.733490
v -1.067320 0.000685 -1.073952
v -1.913204 5.105015 -2.298739
v -2.536871 5.048231 -3.492267
v -2.371404 -0.022498 -1.815362
v -2.995070 -0.079282 -3.008891
v -0.912114 4.575033 2.697919
v 0.485589 4.565068 3.415894
v -0.801761 -0.237128 2.416302
v 0.595942 -0.247093 3.134277
v -4.562412 5.143517 -1.875964
v -5.945497 5.174632 -1.928343
v -4.695084 0.062163 -1.391261
v -6.078168 0.093278 -1.443640
v 0.163029 4.657443 -5.537070
v 0.054251 4.612307 -6.523234
v 0.118005 -0.259276 -5.307069
v 0.009227 -0.304411 -6.293235
v -2.209813 3.709192 2.520346
v -0.911857 3.714773 2.457187
v -2.181012 0.314136 2.812237
v -0.883056 0.319717 2.749078
v 0.008644 3.701925 -2.831985
v -0.364424 3.657601 -3.899229
v -0.113490 -0.145520 -2.629503
v -0.486558 -0.189844 -3.696748
v -3.675832 5.412955 -2.512873
v -5.117666 5.419520 -2.174880
v -3.518034 -0.223566 -1.730229
v -4.959868 -0.217000 -1.392236
v 0.588718 6.615018 -0.223504
v 2.001243 6.700941 -0.067149
v 0.977195 0.266795 -0.244427
v 2.389718 0.352718 -0.088072
v 3.135354 6.930773 -1.748145
v 1.783314 7.000000 -2.320257
v 3.171799 0.847358 -2.570386
v 1.819758 0.916585 -3.142499
v -4.541074 4.625011 2.133125
v -3.226402 4.687790 2.860757
v -4.561269 0.343094 2.539053
v -3.246598 0.405873 3.266684
v 1.529445 5.300756 -3.490834
v 1.048440 5.327108 -4.675581
v 1.353229 -0.176539 -3.541118
v 0.872224 -0.150188 -4.725865
v -2.032715 3.049288 4.724846
v -0.786581 2.994476 5.502028
v -1.951096 -0.641418 4.333683
v -0.704960 -0.696230 5.110865
v 3.264509 4.963000 0.763427
v 4.606335 4.897676 0.311501
v 3.185231 0.133340 1.226145
v 4.527056 0.068016 0.774219
v -3.319571 4.625637 1.124681
v -2.063519 4.542265 1.746607
v -3.790333 0.467868 1.518080
v -2.534283 0.384497 2.140006
v -3.404739 5.524970 0.288467
v -4.766823 5.536956 -0.290379
v -3.179242 -0.151370 -0.359699
v -4.541325 -0.139383 -0.938543
v 4.237617 4.652026 2.040856
v 5.334645 4.680607 0.963446
v 4.566084 0.891307 2.275542
v 5.663111 0.919888 1.198132
v 1.922935 5.723904 -0.799128
v 0.629617 5.658475 -1.654764
v 2.184994 -0.306973 -0.734071
v 0.891675 -0.372401 -1.589707
v 0.431529 5.606107 -0.926078
v -0.061738 5.669209 -2.125394
v 0.073331 -0.125358 -1.080315
v -0.419936 -0.062256 -2.279632
v 0.134356 5.932802 -1.559989
v 1.124125 5.948055 -0.613173
v 0.075478 -0.040337 -1.402216
v 1.065247 -0.025084 -0.455400
v 1.035405 5.683657 -2.371456
v -0.378085 5.624844 -1.679996
v 1.269237 -0.249028 -2.398063
v -0.144253 -0.307840 -1.706602
v 0.823021 3.354468 0.493909
v 2.087349 3.335815 0.328290
v 0.720091 -0.349570 0.125290
v 1.984418 -0.368223 -0.040329
v 3.736495 3.930033 -3.150149
v 2.461053 4.008753 -3.579479
v 3.310435 -0.322559 -2.664160
v 2.034995 -0.243840 -3.093490
v -4.021931 5.504096 -5.495801
v -5.405766 5.425195 -5.037576
v -3.527099 -0.556028 -5.044884
v -4.910935 -0.634928 -4.586659
v 0.395982 3.665603 1.548753
v 1.814075 3.607445 0.992212
v 0.175945 -0.410593 1.414050
v 1.594038 -0.468751 0.857507
v 5.264430 5.171766 3.203862
v 3.849945 5.164828 3.419287
v 5.213015 0.151299 2.704563
v 3.798529 0.144361 2.919988
v -2.298793 5.988309 -5.197864
v -3.635056 5.994862 -4.568762
v -2.495749 0.365481 -5.557652
v -3.832011 0.372034 -4.928549
v -1.838265 2.922773 3.718185
v -0.487838 2.849318 4.034090
v -1.939313 -0.531555 3.346939
v -0.588886 -0.605011 3.662844
v 0.067671 5.212440 5.109283
v 1.460557 5.148660 5.204452
v -0.177313 -0.012522 5.193175
v 1.215572 -0.076303 5.288344
v -0.172763 4.409232 -4.025590
v 0.055696 4.365861 -5.070045
v -0.098067 -0.109578 -3.821611
v 0.130390 -0.152948 -4.866067
v 5.254014 3.625737 -0.306849
v 6.642708 3.695430 -0.855975
v 5.285200 -0.014774 -0.690020
v 6.673893 0.054918 -1.239146
v -5.034575 4.285810 3.621873
v -3.784898 4.301508 4.614188
v -4.512855 -0.957545 3.047793
v -3.263177 -0.941846 4.040108
v -2.662091 4.239609 -2.083325
v -4.020764 4.247441 -2.123308
v -2.703122 -0.062927 -1.531811
v -4.061794 -0.055095 -1.571794
v -0.185453 4.512768 2.545199
v 1.238830 4.558568 2.499961
v -0.045938 -0.414286 1.949524
v 1.378345 -0.368487 1.904286
v 2.417748 5.815001 -0.767801
v 3.672795 5.779212 -1.077562
v 2.359011 0.004650 -0.334460
v 3.614057 -0.031140 -0.644222
v -0.364445 3.787016 -2.038985
v -1.577763 3.755396 -2.900005
v -0.591045 -0.143805 -1.575317
v -1.804362 -0.175424 -2.436337
v 4.809459 3.522312 -1.373060
v 4.807874 3.551479 -2.333170
v 4.509874 -0.509489 -1.495043
v 4.508290 -0.480322 -2.455153
v 3.132069 3.705371 4.230912
v 4.455464 3.715494 3.817533
v 3.184227 0.227656 4.312722
v 4.507622 0.237779 3.899343
v 1.200972 4.575033 2.982373
v 2.598676 4.565068 3.700348
v 1.311325 -0.237128 2.700756
v 2.709029 -0.247093 3.418731
v 1.927633 4.512768 2.829652
v 3.351915 4.558568 2.784415
v 2.067147 -0.414286 2.233978
v 3.491431 -0.368487 2.188740
v 5.121078 5.237290 -4.295239
v 3.963110 5.286957 -5.256089
v 5.042696 0.237160 -4.459239
v 3.884729 0.286827 -5.420089
v 4.157929 5.723903 -4.090666
v 2.864613 5.658475 -4.946301
v 4.419987 -0.306973 -4.025610
v 3.126670 -0.372401 -4.881245
v 2.538948 5.683657 -5.825540
v 1.125458 5.624845 -5.134079
v 2.772779 -0.249027 -5.852146
v 1.359288 -0.307840 -5.160686
v 5.260354 3.930033 -5.899871
v 3.984913 4.008753 -6.329200
v 4.834295 -0.322559 -5.413883
v 3.558855 -0.243839 -5.843212
vt -0.000000 1.000000
vt 0.000000 -0.000000
vt 1.000000 0.000000
vt 1.000000 1.000000
vt -0.000000 1.000000
vt 0.000000 -0.000000
vt 1.000000 0.000000
vt 1.000000 1.000000
vt -0.000000 1.000000
vt 0.000000 -0.000000
vt 1.000000 0.000000
vt 1.000000 1.000000
vt -0.000000 1.000000
vt 0.000000 -0.000000
vt 1.000000 0.000000
vt 1.000000 1.000000
vt -0.000000 1.000000
vt 0.000000 -0.000000
vt 1.000000 0.000000
vt 1.000000 1.000000
vt -0.000000 1.000000
vt 0.000000 -0.000000
vt 1.000000 0.000000
vt 1.000000 1.000000
vt -0.000000 1.000000
vt 0.000000 -0.000000
vt 1.000000 0.000000
vt 1.000000 1.000000
vt -0.000000 1.000000
vt 0.000000 -0.000000
vt 1.000000 0.000000
vt 1.000000 1.000000
vt -0.000000 1.000000
vt 0.000000 -0.000000
vt 1.000000 0.000000
vt 1.000000 1.000000
vt -0.000000 1.000000
vt 0.000000 -0.000000
vt 1.000000 0.000000
vt 1.000000 1.000000
vt -0.000000 1.000000
vt 0.000000 -0.000000
vt 1.000000 0.000000
vt 1.000000 1.000000
vt -0.000000 1.000000
vt 0.000000 -0.000000
vt 1.000000 0.000000
vt 1.000000 1.000000
vt -0.000000 1.000000
vt 0.000000 -0.000000
vt 1.000000 0.000000
vt 1.000000 1.000000
vt -0.000000 1.000000
vt 0.000000 -0.000000
vt 1.000000 0.000000
vt 1.000000 1.000000
vt -0.000000 1.000000
vt 0.000000 -0.000000
vt 1.000000 0.000000
vt 1.000000 1.000000
vt -0.000000 1.000000
vt 0.000000 -0.000000
vt 1.000000 0.000000
vt 1.000000 1.000000
vt -0.000000 1.000000
vt 0.000000 -0.000000
vt 1.000000 0.000000
vt 1.000000 1.000000
vt -0.000000 1.000000
vt 0.000000 -0.000000
vt 1.000000 0.000000
vt 1.000000 1.000000
vt -0.000000 1.000000
vt 0.000000 -0.000000
vt 1.000000 0.000000
vt 1.000000 1.000000
vt -0.000000 1.000000
vt 0.000000 -0.000000
vt 1.000000 0.000000
vt 1.000000 1.000000
vt -0.000000 1.000000
vt 0.000000 -0.000000
vt 1.000000 0.000000
vt 1.000000 1.000000
vt -0.000000 1.000000
vt 0.000000 -0.000000
vt 1.000000 0.000000
vt 1.000000 1.000000
vt -0.000000 1.000000
vt 0.000000 -0.000000
vt 1.000000 0.000000
vt 1.000000 1.000000
vt -0.000000 1.000000
vt 0.000000 -0.000000
vt 1.000000 0.000000
vt 1.000000 1.000000
vt -0.000000 1.000000
vt 0.000000 -0.000000
vt 1.000000 0.000000
vt 1.000000 1.000000
vt -0.000000 1.000000
vt 0.000000 -0.000000
vt 1.000000 0.000000
vt 1.000000 1.000000
vt -0.000000 1.000000
vt 0.000000 -0.000000
vt 1.000000 0.000000
vt 1.000000 1.000000
vt -0.000000 1.000000
vt 0.000000 -0.000000
vt 1.000000 0.000000
vt 1.000000 1.000000
vt -0.000000 1.000000
vt 0.000000 -0.000000
vt 1.000000 0.000000
vt 1.000000 1.000000
vt -0.000000 1.000000
vt 0.000000 -0.000000
vt 1.000000 0.000000
vt 1.000000 1.000000
vt -0.000000 1.000000
vt 0.000000 -0.000000
vt 1.000000 0.000000
vt 1.000000 1.000000
vt -0.000000 1.000000
vt 0.000000 -0.000000
vt 1.000000 0.000000
vt 1.000000 1.000000
vt -0.000000 1.000000
vt 0.000000 -0.000000
vt 1.000000 0.000000
vt 1.000000 1.000000
vt -0.000000 1.000000
vt 0.000000 -0.000000
vt 1.000000 0.000000
vt 1.000000 1.000000
vt -0.000000 1.000000
vt 0.000000 -0.000000
vt 1.000000 0.000000
vt 1.000000 1.000000
vt -0.000000 1.000000
vt 0.000000 -0.000000
vt 1.000000 0.000000
vt 1.000000 1.000000
vt -0.000000 1.000000
vt 0.000000 -0.000000
vt 1.000000 0.000000
vt 1.000000 1.000000
vt -0.000000 1.000000
vt 0.000000 -0.000000
vt 1.000000 0.000000
vt 1.000000 1.000000
vt -0.000000 1.000000
vt 0.000000 -0.000000
vt 1.000000 0.000000
vt 1.000000 1.000000
vt -0.000000 1.000000
vt 0.000000 -0.000000
vt 1.000000 0.000000
vt 1.000000 1.000000
vt -0.000000 1.000000
vt 0.000000 -0.000000
vt 1.000000 0.000000
vt 1.000000 1.000000
vt -0.000000 1.000000
vt 0.000000 -0.000000
vt 1.000000 0.000000
vt 1.000000 1.000000
vt -0.000000 1.000000
vt 0.000000 -0.000000
vt 1.000000 0.000000
vt 1.000000 1.000000
vt -0.000000 1.000000
vt 0.000000 -0.000000
vt 1.000000 0.000000
vt 1.000000 1.000000
vt -0.000000 1.000000
vt 0.000000 -0.000000
vt 1.000000 0.000000
vt 1.000000 1.000000
vt -0.000000 1.000000
vt 0.000000 -0.000000
vt 1.000000 0.000000
vt 1.000000 1.000000
vt -0.000000 1.000000
vt 0.000000 -0.000000
vt 1.000000 0.000000
vt 1.000000 1.000000
vt -0.000000 1.000000
vt 0.000000 -0.000000
vt 1.000000 0.000000
vt 1.000000 1.000000
vt -0.000000 1.000000
vt 0.000000 -0.000000
vt 1.000000 0.000000
vt 1.000000 1.000000
vt -0.000000 1.000000
vt 0.000000 -0.000000
vt 1.000000 0.000000
vt 1.000000 1.000000
vt -0.000000 1.000000
vt 0.000000 -0.000000
vt 1.000000 0.000000
vt 1.000000 1.000000
vt -0.000000 1.000000
vt 0.000000 -0.000000
vt 1.000000 0.000000
vt 1.000000 1.000000
vt -0.000000 1.000000
vt 0.000000 -0.000000
vt 1.000000 0.000000
vt 1.000000 1.000000
vt -0.000000 1.000000
vt 0.000000 -0.000000
vt 1.000000 0.000000
vt 1.000000 1.000000
vt -0.000000 1.000000
vt 0.000000 -0.000000
vt 1.000000 0.000000
vt 1.000000 1.000000
vt -0.000000 1.000000
vt 0.000000 -0.000000
vt 1.000000 0.000000
vt 1.000000 1.000000
vt -0.000000 1.000000
vt 0.000000 -0.000000
vt 1.000000 0.000000
vt 1.000000 1.000000
vt -0.000000 1.000000
vt 0.000000 -0.000000
vt 1.000000 0.000000
vt 1.000000 1.000000
vn 0.3921 0.1255 -0.9113
vn 0.6331 0.0096 0.7740
vn -0.8507 -0.0858 0.5187
vn 0.8624 -0.0261 -0.5055
vn 0.9980 0.0532 0.0327
vn 0.5598 0.0323 0.8280
vn -0.6860 -0.1378 -0.7145
vn 0.9539 0.0806 -0.2892
vn 0.3461 -0.0789 -0.9349
vn -0.8725 -0.0186 0.4883
vn -0.2546 0.1293 -0.9584
vn 0.9765 0.1254 -0.1751
vn -0.5358 -0.0203 -0.8441
vn 0.6389 0.0152 -0.7692
vn -0.4497 0.0179 0.8930
vn 0.8821 -0.1217 -0.4551
vn -0.4564 -0.0624 0.8876
vn 0.0355 -0.0958 -0.9948
vn 0.9939 -0.0142 -0.1090
vn 0.0481 0.0860 0.9951
vn 0.9435 -0.0472 -0.3279
vn -0.2266 -0.1402 -0.9639
vn -0.1094 -0.0100 0.9939
vn -0.4856 0.0848 0.8701
vn 0.9260 -0.0263 -0.3765
vn -0.5297 -0.1010 0.8422
vn 0.3217 0.0851 0.9430
vn -0.4326 0.1334 0.8916
vn 0.3892 0.1198 -0.9133
vn 0.6954 0.1051 0.7109
vn 0.5512 0.0150 -0.8343
vn 0.9229 -0.0474 -0.3821
vn -0.6912 0.0259 0.7222
vn -0.4389 -0.0133 -0.8984
vn 0.1277 -0.1017 0.9866
vn 0.3083 -0.1384 -0.9412
vn -0.3080 -0.0956 -0.9466
vn 0.3631 -0.0503 0.9304
vn -0.1503 0.0994 -0.9836
vn -0.4245 0.0726 -0.9025
vn -0.2317 -0.0972 0.9679
vn -0.0673 0.0192 0.9975
vn 0.9768 0.0257 0.2126
vn 0.3702 -0.0941 0.9242
vn -0.6141 -0.1460 0.7756
vn 0.0284 -0.1274 -0.9914
vn 0.0353 -0.1190 0.9923
vn 0.2409 0.0698 0.9680
vn 0.5762 -0.1284 -0.8072
vn 0.9973 -0.0740 -0.0039
vn 0.2979 0.0269 0.9542
usemtl Material.001
s off
f 1/1/1 3/2/1 4/3/1 2/4/1
f 5/5/2 6/6/2 8/7/2 7/8/2
f 9/9/3 11/10/3 12/11/3 10/12/3
f 13/13/4 15/14/4 16/15/4 14/16/4
f 17/17/5 19/18/5 20/19/5 18/20/5
f 21/21/6 23/22/6 24/23/6 22/24/6
f 25/25/7 27/26/7 28/27/7 26/28/7
f 29/29/8 31/30/8 32/31/8 30/32/8
f 33/33/9 35/34/9 36/35/9 34/36/9
f 37/37/10 39/38/10 40/39/10 38/40/10
f 41/41/11 43/42/11 44/43/11 42/44/11
f 45/45/12 47/46/12 48/47/12 46/48/12
f 49/49/13 51/50/13 52/51/13 50/52/13
f 53/53/14 55/54/14 56/55/14 54/56/14
f 57/57/15 59/58/15 60/59/15 58/60/15
f 61/61/16 63/62/16 64/63/16 62/64/16
f 65/65/17 67/66/17 68/67/17 66/68/17
f 69/69/18 71/70/18 72/71/18 70/72/18
f 73/73/19 75/74/19 76/75/19 74/76/19
f 77/77/20 79/78/20 80/79/20 78/80/20
f 81/81/21 83/82/21 84/83/21 82/84/21
f 85/85/22 87/86/22 88/87/22 86/88/22
f 89/89/23 91/90/23 92/91/23 90/92/23
f 93/93/1 95/94/1 96/95/1 94/96/1
f 97/97/24 99/98/24 100/99/24 98/100/24
f 101/101/25 103/102/25 104/103/25 102/104/25
f 105/105/26 107/106/26 108/107/26 106/108/26
f 109/109/27 111/110/27 112/111/27 110/112/27
f 113/113/28 115/114/28 116/115/28 114/116/28
f 117/117/29 119/118/29 120/119/29 118/120/29
f 121/121/30 123/122/30 124/123/30 122/124/30
f 125/125/31 127/126/31 128/127/31 126/128/31
f 129/129/32 131/130/32 132/131/32 130/132/32
f 133/133/33 135/134/33 136/135/33 134/136/33
f 137/137/34 139/138/34 140/139/34 138/140/34
f 141/141/35 143/142/35 144/143/35 142/144/35
f 145/145/36 147/146/36 148/147/36 146/148/36
f 149/149/37 151/150/37 152/151/37 150/152/37
f 153/153/38 155/154/38 156/155/38 154/156/38
f 157/157/39 159/158/39 160/159/39 158/160/39
f 161/161/40 163/162/40 164/163/40 162/164/40
f 165/165/41 167/166/41 168/167/41 166/168/41
f 169/169/42 171/170/42 172/171/42 170/172/42
f 173/173/43 175/174/43 176/175/43 174/176/43
f 177/177/44 179/178/44 180/179/44 178/180/44
f 181/181/45 183/182/45 184/183/45 182/184/45
f 185/185/46 187/186/46 188/187/46 186/188/46
f 189/189/47 191/190/47 192/191/47 190/192/47
f 193/193/48 195/194/48 196/195/48 194/196/48
f 197/197/49 199/198/49 200/199/49 198/200/49
f 201/201/50 203/202/50 204/203/50 202/204/50
f 205/205/51 207/206/51 208/207/51 206/208/51
f 209/209/17 211/210/17 212/211/17 210/212/17
f 213/213/47 215/214/47 216/215/47 214/216/47
f 217/217/14 219/218/14 220/219/14 218/220/14
f 221/221/31 223/222/31 224/223/31 222/224/31
f 225/225/34 227/226/34 228/227/34 226/228/34
f 229/229/36 231/230/36 232/231/36 230/232/36
