# Blender v2.91.2 OBJ File: ''
# www.blender.org
mtllib untitled.mtl
o 1614586770_1-p-trava-na-belom-fone-2
v 0.360138 -0.003667 0.416149
v -0.156161 -0.003667 -0.440260
v -0.016675 1.638406 0.643316
v -0.532974 1.638406 -0.213092
v -0.312618 -0.002463 0.029140
v 0.313984 -0.002463 -0.212449
v -0.418915 1.100291 -0.246560
v 0.207687 1.100291 -0.488149
v 0.226662 -0.003667 -0.357387
v -0.133231 -0.003667 0.575607
v 0.637172 1.638406 -0.199036
v 0.277279 1.638406 0.733957
v -0.184841 -0.002463 -0.396659
v 0.298926 -0.002463 0.069136
v 0.020105 1.100291 -0.609513
v 0.503872 1.100291 -0.143718
v 0.051617 -0.002463 0.400175
v -0.358231 -0.002463 -0.131820
v -0.182457 1.100291 0.580505
v -0.592305 1.100291 0.048510
vt 0.000000 0.000000
vt 0.000000 1.000000
vt 1.000000 1.000000
vt 1.000000 0.000000
vt 0.000000 0.000000
vt 1.000000 0.000000
vt 1.000000 1.000000
vt 0.000000 1.000000
vt 0.000000 0.000000
vt 0.000000 1.000000
vt 1.000000 1.000000
vt 1.000000 0.000000
vt 0.000000 0.000000
vt 0.000000 1.000000
vt 1.000000 1.000000
vt 1.000000 0.000000
vt 0.000000 0.000000
vt 0.000000 1.000000
vt 1.000000 1.000000
vt 1.000000 0.000000
vn -0.8272 -0.2588 0.4987
vn 0.3475 0.2588 0.9013
vn 0.9012 -0.2588 0.3476
vn 0.6700 -0.2588 -0.6958
vn -0.7652 -0.2588 0.5895
usemtl 1614586770_1-p-trava-na-belom-fone-2
s off
f 1/1/1 3/2/1 4/3/1 2/4/1
f 5/5/2 6/6/2 8/7/2 7/8/2
f 9/9/3 11/10/3 12/11/3 10/12/3
f 13/13/4 15/14/4 16/15/4 14/16/4
f 17/17/5 19/18/5 20/19/5 18/20/5
