# Blender v2.91.2 OBJ File: 'Machine.blend'
# www.blender.org
mtllib Ruble.mtl
o Plane.006_Plane.004
v 0.588318 -0.581816 -0.576617
v 0.555333 -0.662586 -0.582267
v 0.510392 -0.605155 -0.610890
v -0.588321 -0.581815 -0.576620
v -0.510392 -0.605155 -0.610891
v -0.555336 -0.662585 -0.582269
v -0.588321 0.581815 -0.576620
v -0.555336 0.662585 -0.582269
v -0.510392 0.605155 -0.610890
v 0.588318 0.581816 -0.576617
v 0.510392 0.605155 -0.610890
v 0.555333 0.662587 -0.582267
v -0.037820 -1.263939 -0.582269
v 0.000000 -1.197937 -0.610891
v 0.037817 -1.263939 -0.582267
v 0.037817 1.263939 -0.582267
v 0.000000 1.197937 -0.610890
v -0.037820 1.263939 -0.582269
v -0.971457 -1.111167 0.055005
v -1.000000 -1.025573 0.055005
v -1.000024 -1.078000 0.000943
v 1.000000 -1.025573 0.055005
v 0.971457 -1.111167 0.055005
v 0.999976 -1.078000 0.000943
v -1.000000 1.025573 0.055005
v -0.971457 1.111167 0.055005
v -1.000024 1.078000 0.000942
v 0.971457 1.111167 0.055005
v 1.000000 1.025573 0.055005
v 0.999976 1.078000 0.000942
v 0.037843 -2.196027 0.055005
v -0.037843 -2.196027 0.055005
v -0.000024 -2.240000 0.000943
v -0.037843 2.196027 0.055005
v 0.037843 2.196027 0.055005
v -0.000024 2.240000 0.000942
v -0.588376 -0.581842 0.576663
v -0.555367 -0.662621 0.582323
v -0.510392 -0.605155 0.610890
v 0.588376 -0.581842 0.576663
v 0.510392 -0.605155 0.610890
v 0.555367 -0.662621 0.582323
v 0.588376 0.581842 0.576663
v 0.555367 0.662621 0.582323
v 0.510392 0.605155 0.610890
v -0.588376 0.581842 0.576663
v -0.510392 0.605155 0.610890
v -0.555367 0.662621 0.582323
v 0.037843 -1.263985 0.582323
v -0.000000 -1.197937 0.610891
v -0.037843 -1.263985 0.582323
v -0.037843 1.263985 0.582323
v -0.000000 1.197937 0.610890
v 0.037843 1.263985 0.582323
v -1.000049 -1.025608 -0.053120
v -0.971506 -1.111166 -0.053120
v 0.971409 -1.111166 -0.053120
v 0.999951 -1.025606 -0.053120
v -0.971506 1.111166 -0.053120
v -1.000049 1.025608 -0.053120
v 0.999951 1.025606 -0.053120
v 0.971409 1.111166 -0.053120
v -0.037866 -2.196056 -0.053120
v 0.037771 -2.196054 -0.053120
v 0.037771 2.196054 -0.053120
v -0.037866 2.196056 -0.053120
vt 0.971458 1.000000
vt 0.037817 1.000000
vt 0.052694 1.000000
vt 0.953875 1.000000
vt 0.028542 0.000000
vt 0.962180 0.000000
vt 0.947303 0.000000
vt 0.046126 0.000000
vt 0.000000 0.975699
vt 0.000000 0.024301
vt 0.000000 0.033865
vt 0.000000 0.966136
vt 1.000000 0.024301
vt 1.000000 0.975699
vt 1.000000 0.966136
vt 1.000000 0.033864
vt 0.045403 1.000000
vt 0.954597 1.000000
vt 0.045628 1.000000
vt 0.954597 0.000000
vt 0.045403 0.000000
vt 0.954372 0.000000
vt 0.000000 1.000000
vt 0.000000 1.000000
vt 0.000000 1.000000
vt 0.000000 1.000000
vt 0.000000 0.000000
vt 0.000000 0.024317
vt 0.000000 0.975683
vt 0.000000 1.000000
vt 0.000000 0.975699
vt 0.000000 0.024301
vt 1.000000 0.000000
vt 1.000000 0.000000
vt 1.000000 0.000000
vt 1.000000 0.000000
vt 0.045403 1.000000
vt 0.954597 1.000000
vt 0.045628 1.000000
vt 0.954597 0.000000
vt 0.045403 0.000000
vt 0.954372 0.000000
vt 0.000000 0.033875
vt 0.000000 0.966125
vt 0.000000 1.000000
vt 0.000000 1.000000
vt 0.000000 1.000000
vt 0.000000 1.000000
vt 0.000000 1.000000
vt 1.000000 0.000000
vt 0.962158 0.000000
vt 0.028543 0.000000
vt 0.028542 0.000000
vt 0.962183 0.000000
vt 0.037843 1.000000
vt 0.971457 1.000000
vt 1.000000 1.000000
vt 0.971457 1.000000
vt 0.037820 1.000000
vt 1.000000 0.000000
vt 1.000000 0.000000
vt 1.000000 0.000000
vt 1.000000 0.000000
vt 1.000000 0.000000
vt 1.000000 0.975683
vt 1.000000 0.024317
vt 1.000000 0.024301
vt 1.000000 0.975699
vt 1.000000 0.000000
vt 1.000000 0.000000
vt 0.947286 0.000000
vt 0.046124 0.000000
vt 0.052714 1.000000
vt 0.953876 1.000000
vt 0.000000 1.000000
vt 0.000000 1.000000
vt 1.000000 0.966125
vt 1.000000 0.033875
vt -0.033645 0.000000
vt 1.000000 -0.027703
vt 0.000000 1.027703
vt 1.033645 1.000000
vt 1.000000 0.000000
vt 0.000000 1.000000
vt 1.000000 0.000000
vt 1.000000 0.000000
vt 0.000000 0.000000
vt 0.000000 0.000000
vt 1.000000 1.000000
vt 0.999992 1.000000
vt 0.000000 1.000000
vt 0.000000 1.000000
vt 1.020985 0.000000
vn -0.4976 0.4282 -0.7544
vn 0.4976 -0.4282 -0.7543
vn 0.7861 -0.0000 -0.6181
vn -0.7860 -0.0000 -0.6182
vn 0.0000 -0.0000 -1.0000
vn 0.4976 0.4282 -0.7543
vn -1.0000 0.0000 0.0004
vn -0.4976 -0.4282 -0.7544
vn 0.0000 -0.0000 1.0000
vn -0.7850 0.0000 0.6194
vn -0.7580 0.6523 0.0003
vn -0.7580 -0.6523 0.0003
vn 0.7580 0.6523 -0.0003
vn 0.7580 -0.6523 -0.0003
vn 1.0000 -0.0000 -0.0005
vn 0.4966 -0.4274 0.7554
vn -0.4966 -0.4274 0.7554
vn 0.4966 0.4274 0.7554
vn -0.4966 0.4274 0.7554
vn 0.7850 0.0000 0.6194
vn 0.4280 -0.1121 -0.8968
vn -0.4279 -0.1120 -0.8968
vn -0.4279 0.1120 -0.8968
vn 0.4280 0.1121 -0.8968
vn 0.0000 -0.3979 -0.9174
vn 0.0000 0.3979 -0.9174
vn -0.9068 -0.3024 0.2937
vn 0.9070 -0.3025 0.2929
vn -0.9068 0.3024 0.2937
vn 0.9070 0.3025 0.2929
vn 0.0000 -0.7758 0.6310
vn -0.0000 0.7758 0.6310
vn -0.4272 -0.1117 0.8972
vn 0.4272 -0.1117 0.8972
vn 0.4272 0.1117 0.8972
vn -0.4272 0.1117 0.8972
vn 0.0000 -0.3970 0.9178
vn 0.0000 0.3970 0.9178
vn -0.9070 -0.3026 -0.2928
vn 0.9068 -0.3025 -0.2936
vn -0.9070 0.3026 -0.2928
vn 0.9068 0.3025 -0.2936
vn 0.0000 -0.7760 -0.6308
vn 0.0000 0.7760 -0.6308
vn 0.4026 0.0000 -0.9154
vn -0.4026 0.0000 -0.9154
vn -0.2812 -0.2421 -0.9286
vn 0.2813 0.2421 -0.9286
vn 0.2813 -0.2421 -0.9286
vn -0.2812 0.2421 -0.9286
vn -0.4019 0.0000 0.9157
vn 0.4019 0.0000 0.9157
vn 0.2806 -0.2415 0.9289
vn -0.2806 0.2415 0.9289
vn -0.2806 -0.2415 0.9289
vn 0.2806 0.2416 0.9289
vn 0.0000 -0.4924 0.8704
vn -0.6649 -0.2217 0.7133
vn 0.6649 -0.2217 0.7133
vn -0.6649 0.2217 0.7133
vn 0.0000 0.4924 0.8704
vn 0.6649 0.2217 0.7133
vn 0.0000 -0.4937 -0.8696
vn 0.6660 -0.2222 -0.7121
vn -0.6660 -0.2222 -0.7121
vn 0.6660 0.2222 -0.7121
vn 0.0000 0.4937 -0.8696
vn -0.6660 0.2222 -0.7121
usemtl RublesLightMaterial
s off
f 59/1/1 66/2/1 18/3/1 8/4/1
f 57/5/2 64/6/2 15/7/2 2/8/2
f 61/9/3 58/10/3 1/11/3 10/12/3
f 55/13/4 60/14/4 7/15/4 4/16/4
f 11/17/5 9/18/5 17/19/5
f 5/20/5 3/21/5 14/22/5
f 65/23/6 62/24/6 12/25/6 16/26/6
f 21/27/7 20/28/7 25/29/7 27/30/7 60/31/7 55/32/7
f 63/33/8 56/34/8 6/35/8 13/36/8
f 47/37/9 45/38/9 53/39/9
f 41/40/9 39/41/9 50/42/9
f 25/29/10 20/28/10 37/43/10 46/44/10
f 27/30/11 26/45/11 34/46/11 36/47/11 66/48/11 59/49/11
f 33/50/12 32/51/12 19/52/12 21/27/12 56/53/12 63/54/12
f 39/41/9 41/40/9 45/38/9 47/37/9
f 36/47/13 35/55/13 28/56/13 30/57/13 62/58/13 65/59/13
f 24/60/14 23/61/14 31/62/14 33/50/14 64/63/14 57/64/14
f 30/57/15 29/65/15 22/66/15 24/60/15 58/67/15 61/68/15
f 31/62/16 23/61/16 42/69/16 49/70/16
f 19/52/17 32/51/17 51/71/17 38/72/17
f 28/56/18 35/55/18 54/73/18 44/74/18
f 34/46/19 26/45/19 48/75/19 52/76/19
f 22/66/20 29/65/20 43/77/20 40/78/20
f 1/11/21 2/8/21 3/21/21
f 4/16/22 5/20/22 6/35/22
f 7/15/23 8/4/23 9/18/23
f 10/12/24 11/17/24 12/25/24
f 13/36/25 14/22/25 15/7/25
f 16/26/26 17/19/26 18/3/26
f 19/52/27 20/79/27 21/27/27
f 22/66/28 23/80/28 24/60/28
f 25/29/29 26/81/29 27/30/29
f 28/56/30 29/82/30 30/57/30
f 31/62/31 32/83/31 33/50/31
f 34/46/32 35/84/32 36/47/32
f 37/43/33 38/72/33 39/41/33
f 40/78/34 41/40/34 42/69/34
f 43/77/35 44/74/35 45/38/35
f 46/44/36 47/37/36 48/75/36
f 49/70/37 50/42/37 51/71/37
f 52/76/38 53/39/38 54/73/38
f 55/85/39 56/34/39 21/86/39
f 57/5/40 58/87/40 24/88/40
f 59/1/41 60/89/41 27/90/41
f 61/91/42 62/24/42 30/92/42
f 63/93/43 64/6/43 33/50/43
f 65/23/44 66/48/44 36/47/44
f 10/12/45 1/11/45 3/21/45 11/17/45
f 4/16/46 7/15/46 9/18/46 5/20/46
f 13/36/47 6/35/47 5/20/47 14/22/47
f 16/26/48 12/25/48 11/17/48 17/19/48
f 2/8/49 15/7/49 14/22/49 3/21/49
f 8/4/50 18/3/50 17/19/50 9/18/50
f 46/44/51 37/43/51 39/41/51 47/37/51
f 40/78/52 43/77/52 45/38/52 41/40/52
f 49/70/53 42/69/53 41/40/53 50/42/53
f 52/76/54 48/75/54 47/37/54 53/39/54
f 38/72/55 51/71/55 50/42/55 39/41/55
f 44/74/56 54/73/56 53/39/56 45/38/56
f 31/62/57 49/70/57 51/71/57 32/51/57
f 37/43/58 20/28/58 19/52/58 38/72/58
f 22/66/59 40/78/59 42/69/59 23/61/59
f 48/75/60 26/45/60 25/29/60 46/44/60
f 34/46/61 52/76/61 54/73/61 35/55/61
f 43/77/62 29/65/62 28/56/62 44/74/62
f 63/33/63 13/36/63 15/7/63 64/6/63
f 1/11/64 58/10/64 57/5/64 2/8/64
f 55/13/65 4/16/65 6/35/65 56/34/65
f 12/25/66 62/24/66 61/9/66 10/12/66
f 65/23/67 16/26/67 18/3/67 66/2/67
f 7/15/68 60/14/68 59/1/68 8/4/68
f 3/21/5 5/20/5 9/18/5 11/17/5
