# Blender v2.91.2 OBJ File: 'Machine.blend'
# www.blender.org
mtllib Stone1LP.mtl
o Stone1LP_Sphere.009
v 0.152344 1.109488 3.763716
v 0.310700 0.712858 3.609021
v -0.665253 -1.115498 2.871433
v 2.029913 0.113440 2.870081
v 0.311612 -0.838760 2.147541
v -0.544657 0.930509 3.741860
v 1.028087 0.974588 4.578693
v 2.270153 1.605903 3.724077
v 2.205077 1.603955 4.117937
v 2.717494 0.908995 3.774641
v 0.459718 0.731422 4.039098
v -0.266143 -0.058391 3.011081
v 0.240361 0.686260 4.466660
v 0.648982 0.559613 3.380677
v -0.271543 -0.769597 2.752008
v -0.725355 -1.175573 3.030953
v -0.252943 1.187748 4.319471
v -0.816774 -1.133795 3.020739
v 3.289197 -1.149625 2.688040
v -1.141583 -1.119789 3.543508
v -0.155784 -1.133418 5.144958
v 0.177704 0.238975 4.867877
v 2.542298 -0.029764 2.875743
v -1.027335 -1.133177 4.535208
v -1.173280 -1.130605 4.256803
v 1.215803 0.289180 5.198127
v 0.579320 -1.138048 2.055906
v 0.748008 -0.477698 2.106487
v 1.185997 -1.122954 2.035796
v 1.234923 -1.117110 1.997840
v 0.926327 -1.128168 1.987485
v 1.104222 -1.127108 1.967129
v -0.026252 -1.139289 2.229159
v 0.478404 -0.639283 2.635384
v -1.015846 0.116775 3.828505
v 0.859452 0.396522 2.868253
v 2.253304 -1.093250 2.164546
v 2.046353 0.868462 2.885224
v 1.959946 0.250972 4.962139
v 2.849898 0.704896 3.168040
v 2.594561 0.586944 4.641015
v 3.742372 -1.146318 3.414431
v 3.837499 -1.113383 3.462736
v 3.808609 -1.134492 3.560048
v 3.827066 -1.135105 3.656184
v 3.805278 -1.132232 4.032076
v 3.719251 -1.144588 4.131176
v 3.471988 -1.137625 4.473622
v 1.704301 0.722605 4.447530
v 1.611139 1.051249 3.416460
v 2.851326 0.773681 3.482348
v 0.391056 -1.141713 2.048101
v 1.969898 1.258792 3.337565
v 2.811047 -0.469271 4.765594
v 2.957286 -1.132530 2.433821
v 3.336200 -0.250648 3.082085
v 3.714099 -0.622801 3.911006
v 3.048275 0.043180 3.563460
v -0.895760 -1.135393 4.673138
v 3.323463 -1.139284 2.731184
v 3.165697 -1.146129 2.599969
v 3.416108 -1.138556 2.833297
v 3.063459 -1.138737 4.944648
v 2.985251 -1.142226 2.469773
v 2.936138 0.347214 4.398015
v 0.552255 0.115639 2.935823
v 1.454352 0.108125 3.013816
v 3.306446 -1.144509 2.709337
v 1.012934 -1.129377 2.007346
v 3.312670 -1.126837 2.738114
v 3.358097 -1.145257 2.759074
v 2.564317 -1.158536 2.258111
v 1.644718 -1.150726 2.135173
v -0.836970 -1.138604 4.731018
v -0.406049 -1.124879 4.992497
v -1.104686 -1.126240 4.405701
v -0.315301 -1.132816 5.037350
v -0.498392 -1.135562 2.706681
v -0.855618 -1.147140 3.089998
v -1.072383 -1.117367 3.314719
v 0.067236 -1.142669 2.163310
v 0.341543 -1.140412 2.076185
v -0.144051 -1.152564 2.324654
v 1.707102 -1.141390 2.160339
v 1.060645 -1.125128 2.017693
v 1.677690 -1.129188 2.149668
v 1.138583 -1.126396 2.016038
v 3.738346 -1.129641 3.350429
v -0.638354 -1.134619 4.849616
v 0.287580 -1.137879 5.463802
v 0.774927 -1.152197 5.613175
v 1.207436 -1.157269 5.628123
v 1.503865 0.302457 5.377300
v 1.836747 -1.134233 5.465148
v 2.252459 -1.140085 5.347274
v 2.154646 -1.149463 5.339469
v 2.531886 -1.145066 5.274395
v 3.503282 -1.144970 2.943164
v 3.572509 -1.130442 4.358565
v 2.680470 -1.156740 2.298740
v 3.519367 -1.139055 2.992655
v 1.282805 0.747644 3.181831
v 3.365396 -1.130193 4.598835
v 3.606100 -1.125574 3.096741
v 3.204071 -1.134821 4.790247
v 1.333947 -1.146700 2.011583
v 2.339122 -1.133942 2.202203
v 3.173745 -1.140649 4.840936
v 3.329907 -1.143645 4.650869
v 2.963295 -1.135746 5.036810
v 2.777302 -1.144463 5.161583
v 3.362082 -0.739478 4.255575
v 2.454788 -1.139010 5.300329
v 3.605318 -1.144391 3.091389
v 2.608872 -1.146051 5.247869
v 3.676409 -1.138710 3.217298
v 1.473739 -1.127163 5.582119
v 0.247382 -1.117964 5.419148
v 3.491893 -1.120752 4.420216
v 3.650006 -1.153911 4.235455
v 2.017734 -1.130539 5.372519
v 3.289812 -1.133864 2.693792
v 1.410086 -1.135291 2.066262
v 3.170968 -1.191399 2.663927
v 2.862391 -1.137596 2.375950
v 1.789712 -1.122236 2.172075
v 1.537998 -1.125357 2.095030
v -0.934579 -1.136807 3.158895
v -0.731251 -1.119174 2.922986
v -0.952650 -1.132903 4.600248
v 0.129642 -1.131185 5.350627
v 0.194054 -1.130370 5.379915
v -0.506246 -1.120977 4.922925
v 2.453676 -1.125353 2.188308
v -1.089983 -1.128762 3.421110
v -1.002508 -1.122211 3.237628
v -0.779738 -1.127539 4.774465
v -1.119965 -0.628894 3.995856
v 2.539496 -0.477833 2.453497
v 1.062014 1.040146 3.383109
v -0.471991 -1.137462 2.667032
v 3.031078 -1.138685 2.505819
v 1.473638 0.976524 4.217874
v -1.199301 -1.120453 3.716366
v -1.228741 -1.141793 3.953353
v -1.189472 -1.127731 4.206352
v 0.913333 1.064643 4.244231
v -0.718489 -0.524025 4.806055
v 2.348580 -1.140044 5.338539
v 2.191211 1.009737 4.272511
v 1.741922 1.533636 3.885507
v 3.718511 -1.079504 3.251962
v 3.614237 -1.125372 3.130722
v 2.031035 -1.128994 2.208505
v -0.534516 -1.126456 2.746678
v -0.795909 0.634079 4.233539
v -0.315579 0.361418 4.748856
v 1.882201 -1.138449 5.428425
v 2.868109 -1.142296 5.100272
v 2.701636 -1.146181 5.195253
vt 0.000000 0.000000
vt 0.000000 0.000000
vt 0.000000 0.000000
vt 0.000000 0.000000
vt 0.000000 0.000000
vt 0.000000 0.000000
vt 0.000000 0.000000
vt 0.000000 0.000000
vt 0.000000 0.000000
vt 0.000000 0.000000
vt 0.000000 0.000000
vt 0.000000 0.000000
vt 0.000000 0.000000
vt 0.000000 0.000000
vt 0.000000 0.000000
vt 0.000000 0.000000
vt 0.000000 0.000000
vt 0.000000 0.000000
vt 0.000000 0.000000
vt 0.000000 0.000000
vt 0.000000 0.000000
vt 0.000000 0.000000
vt 0.000000 0.000000
vt 0.000000 0.000000
vt 0.000000 0.000000
vt 0.000000 0.000000
vt 0.000000 0.000000
vt 0.000000 0.000000
vt 0.000000 0.000000
vt 0.000000 0.000000
vt 0.000000 0.000000
vt 0.000000 0.000000
vt 0.000000 0.000000
vt 0.000000 0.000000
vt 0.000000 0.000000
vt 0.000000 0.000000
vt 0.000000 0.000000
vt 0.000000 0.000000
vt 0.000000 0.000000
vt 0.000000 0.000000
vt 0.000000 0.000000
vt 0.000000 0.000000
vt 0.000000 0.000000
vt 0.000000 0.000000
vt 0.000000 0.000000
vt 0.000000 0.000000
vt 0.000000 0.000000
vt 0.000000 0.000000
vt 0.000000 0.000000
vt 0.000000 0.000000
vt 0.000000 0.000000
vt 0.000000 0.000000
vt 0.000000 0.000000
vt 0.000000 0.000000
vt 0.000000 0.000000
vt 0.000000 0.000000
vt 0.000000 0.000000
vt 0.000000 0.000000
vt 0.000000 0.000000
vt 0.000000 0.000000
vt 0.000000 0.000000
vt 0.000000 0.000000
vt 0.000000 0.000000
vt 0.000000 0.000000
vt 0.000000 0.000000
vt 0.000000 0.000000
vt 0.000000 0.000000
vt 0.000000 0.000000
vt 0.000000 0.000000
vt 0.000000 0.000000
vt 0.000000 0.000000
vt 0.000000 0.000000
vt 0.000000 0.000000
vt 0.000000 0.000000
vt 0.000000 0.000000
vt 0.000000 0.000000
vt 0.000000 0.000000
vt 0.000000 0.000000
vt 0.000000 0.000000
vt 0.000000 0.000000
vt 0.000000 0.000000
vt 0.000000 0.000000
vt 0.000000 0.000000
vt 0.000000 0.000000
vt 0.000000 0.000000
vt 0.000000 0.000000
vt 0.000000 0.000000
vt 0.000000 0.000000
vt 0.000000 0.000000
vt 0.000000 0.000000
vt 0.000000 0.000000
vt 0.000000 0.000000
vt 0.000000 0.000000
vt 0.000000 0.000000
vt 0.000000 0.000000
vt 0.000000 0.000000
vt 0.000000 0.000000
vt 0.000000 0.000000
vt 0.000000 0.000000
vt 0.000000 0.000000
vt 0.000000 0.000000
vt 0.000000 0.000000
vt 0.000000 0.000000
vt 0.000000 0.000000
vt 0.000000 0.000000
vt 0.000000 0.000000
vt 0.000000 0.000000
vt 0.000000 0.000000
vt 0.000000 0.000000
vt 0.000000 0.000000
vt 0.000000 0.000000
vt 0.000000 0.000000
vt 0.000000 0.000000
vt 0.000000 0.000000
vt 0.000000 0.000000
vt 0.000000 0.000000
vt 0.000000 0.000000
vt 0.000000 0.000000
vt 0.000000 0.000000
vt 0.000000 0.000000
vt 0.000000 0.000000
vt 0.000000 0.000000
vt 0.000000 0.000000
vt 0.000000 0.000000
vt 0.000000 0.000000
vt 0.000000 0.000000
vt 0.000000 0.000000
vt 0.000000 0.000000
vt 0.000000 0.000000
vt 0.000000 0.000000
vt 0.000000 0.000000
vt 0.000000 0.000000
vt 0.000000 0.000000
vt 0.000000 0.000000
vt 0.000000 0.000000
vt 0.000000 0.000000
vt 0.000000 0.000000
vt 0.000000 0.000000
vt 0.000000 0.000000
vt 0.000000 0.000000
vt 0.000000 0.000000
vt 0.000000 0.000000
vt 0.000000 0.000000
vt 0.000000 0.000000
vt 0.000000 0.000000
vt 0.000000 0.000000
vt 0.000000 0.000000
vt 0.000000 0.000000
vt 0.000000 0.000000
vt 0.000000 0.000000
vt 0.000000 0.000000
vt 0.000000 0.000000
vt 0.000000 0.000000
vt 0.000000 0.000000
vt 0.000000 0.000000
vt 0.000000 0.000000
vt 0.163688 0.675850
vt 0.210938 0.640625
vt 0.224912 0.653808
vn -0.0560 0.8876 0.4571
vn 0.2417 0.5263 0.8153
vn 0.2699 0.7601 0.5911
vn 0.8279 0.5010 0.2524
vn 0.4294 0.5633 0.7059
vn -0.0197 0.5512 -0.8342
vn 0.3681 0.4076 -0.8357
vn 0.3005 0.4865 -0.8204
vn -0.0767 0.5310 -0.8439
vn 0.1806 0.5884 -0.7881
vn -0.4076 0.7971 -0.4455
vn -0.2972 0.8639 -0.4066
vn 0.1448 0.7346 0.6629
vn -0.4771 0.5674 -0.6711
vn -0.4302 0.7612 -0.4852
vn -0.3512 0.6591 -0.6650
vn -0.9216 0.2929 -0.2546
vn -0.6468 0.3693 -0.6673
vn -0.6963 0.3414 -0.6313
vn 0.3639 0.8229 -0.4364
vn -0.5249 0.6895 -0.4991
vn -0.1320 0.9028 0.4092
vn 0.2403 0.7528 -0.6128
vn -0.4115 0.4230 -0.8073
vn -0.9811 0.1883 0.0438
vn -0.8165 0.4695 0.3360
vn 0.0967 0.9939 -0.0525
vn 0.1351 0.8124 0.5672
vn -0.5937 0.5692 -0.5689
vn -0.4976 0.4612 -0.7346
vn -0.0072 0.4922 -0.8704
vn -0.0944 0.7309 -0.6759
vn 0.3722 0.8744 -0.3112
vn -0.5945 0.8033 0.0363
vn 0.6394 0.6108 -0.4671
vn 0.6948 0.4245 -0.5806
vn 0.2072 0.2941 -0.9330
vn 0.3127 0.5112 -0.8006
vn 0.2055 0.3475 -0.9149
vn -0.0584 0.8594 0.5079
vn 0.7620 0.1551 -0.6288
vn 0.9038 0.2865 -0.3179
vn 0.8394 0.5389 -0.0709
vn -0.2295 0.6545 -0.7204
vn 0.3138 0.3563 -0.8801
vn -0.2035 0.9781 0.0429
vn -0.3488 0.3639 0.8637
vn -0.1297 0.2842 -0.9499
vn -0.3288 0.9346 0.1357
vn -0.5333 0.5618 -0.6324
vn 0.6837 0.4640 -0.5632
vn 0.4844 0.3322 -0.8093
vn -0.1325 0.1799 -0.9747
vn 0.0401 0.1862 -0.9817
vn -0.3503 0.7507 0.5602
vn 0.5131 0.4138 -0.7520
vn 0.7071 0.4960 -0.5040
vn 0.6580 0.4810 0.5793
vn 0.7163 0.4768 0.5095
vn 0.6942 0.4713 0.5440
vn 0.8693 0.4767 0.1304
vn 0.7878 0.5363 0.3030
vn 0.6642 0.3955 0.6343
vn 0.8305 0.2139 0.5142
vn 0.7659 0.2564 0.5897
vn 0.8755 0.2524 0.4121
vn 0.5666 0.3136 0.7620
vn 0.8331 0.3953 0.3869
vn 0.3623 0.5242 0.7707
vn 0.0988 0.2517 0.9628
vn 0.3687 0.1971 0.9084
vn 0.3744 0.8861 0.2733
vn -0.1820 0.6088 0.7721
vn 0.0183 0.9945 -0.1032
vn -0.2060 0.4394 0.8744
vn -0.1404 0.1408 -0.9800
vn 0.3830 0.8076 0.4484
vn 0.5040 0.7284 0.4642
vn 0.4647 0.7566 0.4600
vn -0.6164 0.1770 0.7673
vn -0.7055 0.0320 0.7080
vn -0.7513 0.0753 0.6557
vn -0.5382 -0.0264 0.8424
vn -0.4779 -0.0001 0.8784
vn -0.5469 0.0117 0.8371
vn -0.6632 0.0366 0.7475
vn -0.6556 0.4787 -0.5839
vn -0.6916 0.5172 -0.5041
vn 0.1538 -0.8488 -0.5058
vn 0.1396 -0.8968 -0.4199
vn 0.1938 -0.5854 -0.7873
vn 0.0555 0.4031 -0.9135
vn -0.1191 0.9528 -0.2794
vn -0.5273 -0.0266 0.8493
vn -0.4819 0.0212 0.8760
vn -0.8734 0.2276 0.4305
vn -0.8559 0.3706 -0.3606
vn 0.2889 0.8549 0.4308
vn -0.8258 0.4179 -0.3788
vn -0.7910 0.1357 0.5966
vn -0.9326 0.2800 -0.2278
vn -0.9784 0.2063 0.0139
vn -0.8880 0.2829 0.3625
vn -0.9412 0.2340 0.2437
vn -0.4612 0.3281 -0.8244
vn -0.5081 0.6405 -0.5758
vn 0.1788 0.3643 -0.9140
vn 0.2097 0.3186 -0.9244
vn 0.6560 0.5013 0.5642
vn 0.3650 0.0661 -0.9286
vn 0.4940 -0.6626 -0.5629
vn 0.4437 0.2622 -0.8570
vn 0.3330 0.2748 -0.9020
vn -0.5483 0.7256 0.4157
vn -0.5340 0.7694 0.3504
vn -0.5603 0.6700 0.4871
vn 0.3450 0.4742 0.8100
vn 0.4374 0.4535 0.7765
vn 0.2213 0.9651 0.1400
vn 0.9159 0.2637 -0.3027
vn 0.9978 0.0336 0.0576
vn 0.4532 0.4463 0.7716
vn 0.1576 0.5436 0.8245
vn -0.0641 0.6837 0.7269
vn 0.6554 0.5008 0.5654
vn 0.1359 0.5876 0.7976
vn 0.3042 0.4896 0.8172
vn 0.2969 0.4944 0.8170
vn 0.4496 0.8038 -0.3896
vn 0.3222 0.9240 -0.2059
vn 0.2822 0.9405 -0.1895
vn 0.8375 0.2321 -0.4948
vn 0.4287 -0.8673 -0.2530
vn 0.3942 -0.9154 -0.0815
vn -0.7347 -0.2694 -0.6226
vn -0.2549 0.9057 0.3387
vn 0.6541 0.2951 -0.6964
vn 0.6418 0.4644 -0.6103
vn 0.7420 0.4877 -0.4600
vn -0.4760 0.1981 0.8568
vn -0.4027 0.7309 0.5510
vn -0.4988 0.3970 0.7705
vn 0.6511 0.4546 0.6077
vn 0.6130 0.5564 0.5609
vn -0.4304 0.4279 0.7948
vn -0.0645 0.9680 -0.2425
vn -0.1855 0.8124 -0.5527
vn -0.0288 0.9884 -0.1491
vn -0.1878 0.8080 -0.5585
vn 0.2098 0.2135 -0.9542
vn -0.4043 0.1724 -0.8982
vn -0.1796 0.2640 -0.9477
vn 0.0966 0.9389 -0.3304
vn -0.4813 0.7248 -0.4930
vn -0.6656 0.4963 -0.5574
vn 0.2204 -0.1172 -0.9683
vn -0.5708 -0.6854 -0.4522
vn 0.2049 -0.3162 -0.9263
vn 0.3462 0.9116 -0.2215
vn 0.5081 0.7265 -0.4627
vn -0.4527 0.8868 0.0928
vn 0.5514 0.4194 0.7211
vn 0.3534 0.3228 0.8780
vn -0.1661 0.3194 0.9329
vn 0.0673 0.2131 0.9747
vn 0.7791 -0.2077 -0.5915
vn 0.2658 0.9267 0.2656
vn -0.2610 -0.7601 0.5951
vn -0.0204 0.9998 0.0050
usemtl None
s 1
f 143/1/1 150/2/2 9/3/3
f 10/4/4 150/2/2 41/5/5
f 102/6/6 67/7/7 127/8/8
f 67/7/7 154/9/9 126/10/10
f 50/11/11 140/12/12 143/1/1
f 143/1/1 49/13/13 150/2/2
f 66/14/14 14/15/15 36/16/16
f 35/17/17 16/18/18 136/19/19
f 1/20/20 6/21/21 17/22/22
f 2/23/23 12/24/24 6/21/21
f 66/14/14 12/24/24 2/23/23
f 35/17/17 136/19/19 138/25/25
f 6/21/21 156/26/26 17/22/22
f 1/20/20 11/27/27 2/23/23
f 6/21/21 16/18/18 35/17/17
f 13/28/28 11/27/27 17/22/22
f 156/26/26 6/21/21 35/17/17
f 34/29/29 15/30/30 66/14/14
f 2/23/23 11/27/27 14/15/15
f 38/31/31 50/11/11 53/32/32
f 8/33/33 53/32/32 151/34/34
f 38/31/31 40/35/35 56/36/36
f 107/37/37 139/38/38 134/39/39
f 49/13/13 143/1/1 7/40/40
f 126/10/10 127/8/8 67/7/7
f 140/12/12 50/11/11 102/6/6
f 8/33/33 9/3/3 10/4/4
f 50/11/11 151/34/34 53/32/32
f 153/41/41 56/36/36 152/42/42
f 51/43/43 8/33/33 10/4/4
f 28/44/44 66/14/14 36/16/16
f 23/45/45 38/31/31 56/36/36
f 1/20/20 2/23/23 6/21/21
f 101/46/46 153/41/46 104/47/46
f 14/15/15 140/12/12 36/16/16
f 156/26/26 157/48/47 17/22/22
f 36/16/16 140/12/12 102/6/6
f 67/7/7 102/6/6 4/49/48
f 147/50/49 14/15/15 11/27/27
f 66/14/14 2/23/23 14/15/15
f 7/40/40 147/50/49 11/27/27
f 5/51/50 34/29/29 28/44/44
f 150/2/2 49/13/13 41/5/5
f 140/12/12 14/15/15 147/50/49
f 7/40/40 143/1/1 147/50/49
f 151/34/34 50/11/11 143/1/1
f 150/2/2 10/4/4 9/3/3
f 8/33/33 51/43/43 53/32/32
f 51/43/43 38/31/31 53/32/32
f 102/6/6 38/31/31 4/49/48
f 139/38/38 142/52/51 125/53/52
f 27/54/53 5/51/50 31/55/54
f 28/44/44 36/16/16 102/6/6
f 61/56/55 142/52/55 124/57/55
f 28/44/44 87/58/56 32/59/57
f 112/60/58 48/61/59 119/62/60
f 51/43/43 10/4/4 58/63/61
f 57/64/62 99/65/63 120/66/64
f 47/67/65 46/68/66 57/64/62
f 41/5/5 54/69/67 65/70/68
f 39/71/69 93/72/70 158/73/71
f 143/1/1 140/12/12 147/50/49
f 16/18/72 18/74/72 136/19/72
f 39/71/69 26/75/73 93/72/74
f 139/38/38 154/9/9 4/49/48
f 26/75/73 7/40/40 22/76/75
f 28/44/76 31/55/54 5/51/50
f 12/24/24 66/14/14 15/30/30
f 58/63/61 10/4/4 65/70/68
f 16/18/77 155/77/78 3/78/79
f 12/24/24 15/30/30 16/18/18
f 112/60/58 57/64/62 58/63/61
f 7/40/40 13/28/28 22/76/75
f 148/79/80 130/80/81 59/81/82
f 17/22/22 157/48/47 22/76/75
f 12/24/24 16/18/18 6/21/21
f 133/82/83 148/79/80 89/83/84
f 137/84/85 148/79/80 74/85/86
f 78/86/87 155/77/88 15/30/30
f 86/87/89 127/8/90 126/10/91
f 37/88/92 154/9/9 139/38/38
f 120/66/64 47/67/65 57/64/62
f 136/19/93 79/89/93 128/90/93
f 77/91/94 148/79/80 75/92/95
f 148/79/80 156/26/26 76/93/96
f 7/40/40 11/27/27 13/28/28
f 20/94/97 138/25/25 136/19/19
f 157/48/47 156/26/26 148/79/80
f 3/78/79 129/95/98 16/18/77
f 20/94/97 136/19/19 135/96/99
f 130/80/81 148/79/80 24/97/100
f 138/25/25 144/98/101 145/99/102
f 148/79/80 76/93/96 24/97/100
f 76/93/96 138/25/25 25/100/103
f 138/25/25 146/101/104 25/100/103
f 5/51/50 81/102/105 33/103/106
f 123/104/107 29/105/108 28/44/44
f 23/45/45 139/38/38 4/49/48
f 67/7/7 4/49/48 154/9/9
f 26/75/73 39/71/69 7/40/40
f 48/61/59 112/60/58 103/106/109
f 127/8/110 86/87/110 73/107/110
f 55/108/111 142/52/111 64/109/111
f 72/110/112 139/38/38 100/111/113
f 70/112/114 124/57/115 101/46/116
f 54/69/67 115/113/117 160/114/118
f 156/26/26 35/17/17 138/25/25
f 136/19/119 80/115/119 135/96/119
f 28/44/44 29/105/108 87/58/56
f 156/26/26 138/25/25 76/93/96
f 43/116/120 46/68/66 45/117/121
f 11/27/27 1/20/20 17/22/22
f 159/118/122 54/69/67 160/114/118
f 112/60/58 65/70/68 54/69/67
f 54/69/67 96/119/123 95/120/124
f 28/44/44 34/29/29 66/14/14
f 112/60/58 109/121/125 103/106/109
f 127/8/8 28/44/44 102/6/6
f 54/69/67 95/120/124 149/122/126
f 139/38/38 107/37/37 37/88/92
f 50/11/11 38/31/31 102/6/6
f 38/31/31 23/45/45 4/49/48
f 97/123/127 54/69/67 113/124/128
f 57/64/62 56/36/36 58/63/61
f 70/112/129 101/46/130 62/125/131
f 59/81/82 74/85/86 148/79/80
f 39/71/69 41/5/5 49/13/13
f 88/126/132 152/42/42 56/36/36
f 88/126/133 43/116/133 42/127/133
f 57/64/62 43/116/120 56/36/36
f 45/117/134 44/128/134 43/116/134
f 22/76/75 13/28/28 17/22/22
f 7/40/40 39/71/69 49/13/13
f 138/25/25 20/94/97 144/98/101
f 54/69/67 41/5/5 39/71/69
f 9/3/3 151/34/34 143/1/1
f 28/44/135 32/59/135 85/129/135
f 8/33/33 151/34/34 9/3/3
f 125/53/136 142/52/136 55/108/136
f 101/46/137 23/45/45 56/36/36
f 101/46/137 124/57/138 23/45/45
f 56/36/36 153/41/41 101/46/137
f 70/112/139 68/130/139 122/131/139
f 10/4/4 41/5/5 65/70/68
f 112/60/58 99/65/63 57/64/62
f 21/132/140 131/133/141 118/134/142
f 23/45/45 124/57/138 139/38/38
f 40/35/35 38/31/31 51/43/43
f 124/57/138 142/52/51 139/38/38
f 112/60/58 63/135/143 105/136/144
f 43/116/120 57/64/62 46/68/66
f 88/126/132 56/36/36 43/116/120
f 51/43/43 58/63/61 40/35/35
f 90/137/145 26/75/73 118/134/142
f 158/73/146 117/138/147 94/139/148
f 118/134/142 22/76/75 21/132/140
f 158/73/146 92/140/149 117/138/147
f 21/132/140 157/48/47 148/79/80
f 148/79/80 77/91/94 21/132/140
f 75/92/95 148/79/80 133/82/83
f 85/129/150 31/55/54 28/44/76
f 139/38/38 125/53/52 100/111/113
f 82/141/151 5/51/50 52/142/152
f 123/104/107 106/143/153 29/105/108
f 28/44/44 127/8/8 123/104/107
f 33/103/106 83/144/154 141/145/155
f 69/146/156 31/55/54 85/129/150
f 89/83/84 148/79/80 137/84/85
f 81/102/105 5/51/50 82/141/151
f 27/54/53 52/142/152 5/51/50
f 149/122/126 113/124/128 54/69/67
f 157/48/47 21/132/140 22/76/75
f 33/103/106 34/29/29 5/51/50
f 34/29/29 33/103/106 15/30/30
f 15/30/30 155/77/88 16/18/18
f 15/30/30 141/145/155 78/86/87
f 138/25/25 145/99/102 146/101/104
f 18/74/157 79/89/157 136/19/157
f 33/103/106 141/145/155 15/30/30
f 86/87/89 126/10/91 84/147/158
f 62/125/131 101/46/130 98/148/159
f 71/149/160 70/112/129 62/125/131
f 124/57/115 70/112/114 122/131/161
f 112/60/58 58/63/61 65/70/68
f 72/110/112 134/39/39 139/38/38
f 54/69/67 110/150/162 63/135/143
f 56/36/36 40/35/35 58/63/61
f 158/73/71 121/151/163 39/71/69
f 112/60/58 54/69/67 63/135/143
f 54/69/67 121/151/163 96/119/123
f 115/113/117 54/69/67 97/123/127
f 26/75/73 91/152/164 92/140/165
f 112/60/58 119/62/60 99/65/63
f 54/69/67 159/118/122 110/150/162
f 112/60/58 105/136/144 109/121/125
f 93/72/70 92/140/165 158/73/71
f 54/69/67 39/71/69 121/151/163
f 116/153/166 153/41/41 152/42/42
f 105/136/144 63/135/143 108/154/167
f 93/72/70 26/75/73 92/140/165
f 91/152/164 26/75/73 90/137/145
f 118/134/168 131/133/168 132/155/168
f 159/118/122 160/114/118 111/156/169
f 22/157/75 118/158/142 26/159/73
l 70 60
l 30 29
l 114 104
l 122 19
